# xmcd
#
# Track frame offsets: 
#        150
#        24067
#        43542
#        61682
#        86167
#        103022
#        117700
#        135365
#        161880
#        185955
#        206775
#        225392
#
# Disc length: 3400 seconds
#
# Revision: 3
# Processed by: cddbd v1.5.2PL0 Copyright (c) Steve Scherf et al.
# Submitted via: ExactAudioCopy v1.1
#
DISCID=a10d460c
DTITLE=Ryan Farish - From The Sky
DYEAR=2005
DGENRE=New Age
TTITLE0=Promise
TTITLE1=Living Water
TTITLE2=Joy
TTITLE3=Pacific Wind
TTITLE4=Home Again
TTITLE5=Walk With You
TTITLE6=Legacy
TTITLE7=Cry No More
TTITLE8=Miles Away
TTITLE9=Shine
TTITLE10=From The Sky
TTITLE11=Rejoice
EXTD=
EXTT0=
EXTT1=
EXTT2=
EXTT3=
EXTT4=
EXTT5=
EXTT6=
EXTT7=
EXTT8=
EXTT9=
EXTT10=
EXTT11=
PLAYORDER=
